<svg width="1908" height="763" viewBox="0 0 1908 763" fill="none" xmlns="http://www.w3.org/2000/svg">
<g clip-path="url(#clip0_1_625)">
<g opacity="0.89">
<path style="mix-blend-mode:lighten" fill-rule="evenodd" clip-rule="evenodd" d="M1223.18 -8L1223.61 -7.814L1450.09 90.246L1450.52 90.433L1450.95 90.619L1677 188.494L1677.44 188.68L1677.87 188.866L1903.05 286.369L1903.48 286.183L1903.92 285.997L1904.35 286.183L2131.25 384.43L2131.68 384.616L2131.25 384.802L1904.35 483.049L1903.92 483.235L2129.69 580.991L2130.12 581.177L2130.55 581.362L2130.83 581.482L2357.31 483.421L2357.73 483.235L2358.17 483.421L2584.65 581.482L2585.08 581.668L2585.51 581.854L2811.56 679.729L2811.99 679.915L2812.43 680.101L3038.91 778.162L3039.33 778.348L3038.91 778.534L2811.99 876.781L2811.56 876.967L2811.13 876.781L2810.43 876.476L2584.37 974.35L2583.95 974.536L2583.52 974.722L2357.04 1072.78L2356.6 1072.97L2356.17 1072.78L2355.87 1072.65L2129.53 1170.64L2129.11 1170.83L2128.68 1170.64L2127.97 1170.34L1901.92 1268.21L1901.49 1268.4L1901.07 1268.58L1674.59 1366.65L1674.15 1366.83L1673.72 1366.65L1447.24 1268.58L1446.81 1268.4L1446.39 1268.21L1220.33 1170.34L1219.9 1170.15L1219.47 1169.97L993.416 1072.09L992.987 1071.9L992.557 1071.72L766.505 973.843L766.076 973.657L765.645 973.471L539.593 875.596L539.164 875.41L538.735 875.224L312.681 777.349L312.252 777.163L311.823 776.977L85.7693 679.102L85.3413 678.917L84.912 678.731L-141.571 580.669L-142 580.483L-141.571 580.297L84.912 482.236L85.3413 482.05L85.7707 481.864L312.252 383.803L312.681 383.618L313.112 383.803L313.817 384.109L540.299 286.048L540.728 285.862L541.157 286.048L541.468 286.182L767.365 188.375L767.795 188.189L768.224 188.003L994.707 89.942L995.136 89.756L995.565 89.942L996.271 90.247L1222.75 -7.814L1223.18 -8ZM768.38 384.429L768.069 384.295L767.64 384.109L542.327 286.554L768.224 188.747L994.277 286.622L768.38 384.429ZM995.291 482.676L994.98 482.542L994.551 482.356L769.239 384.801L995.136 286.994L1221.19 384.869L995.291 482.676ZM1222.2 580.923L1221.89 580.789L1221.46 580.603L996.149 483.048L1222.05 385.241L1448.09 483.115L1222.2 580.923ZM1449.12 679.17L1448.8 679.036L1448.37 678.85L1223.06 581.295L1448.96 483.488L1675.01 581.362L1449.12 679.17ZM1676.03 777.417L1675.72 777.283L1675.28 777.097L1449.97 679.542L1675.87 581.734L1901.92 679.609L1676.03 777.417ZM1902.93 875.664L1902.63 875.53L1902.2 875.344L1676.88 777.789L1902.79 679.981L2128.84 777.856L1902.93 875.664ZM2129.85 973.911L2129.53 973.777L2129.11 973.591L1903.8 876.036L2129.69 778.229L2355.75 876.104L2129.85 973.911ZM2356.76 1072.16L2356.45 1072.02L2130.71 974.283L2356.6 876.475L2582.65 974.35L2356.76 1072.16ZM540.573 286.673L314.676 384.481L539.593 481.864L540.023 482.05L540.381 482.206L540.452 482.236L540.728 482.356L766.625 384.548L540.884 286.808L540.573 286.673ZM767.484 384.92L541.587 482.728L766.505 580.112L766.935 580.298L767.364 580.483L767.64 580.603L993.537 482.795L768.224 385.241L767.795 385.055L767.484 384.92ZM994.396 483.167L768.499 580.975L993.416 678.359L993.847 678.545L994.276 678.731L994.551 678.85L1220.45 581.042L995.136 483.488L994.707 483.301L994.396 483.167ZM1221.31 581.414L995.409 679.222L1220.33 776.605L1220.76 776.792L1221.19 776.977L1221.46 777.097L1447.36 679.289L1222.05 581.734L1221.62 581.548L1221.31 581.414ZM1448.21 679.661L1222.32 777.469L1447.24 874.853L1447.67 875.038L1448.09 875.224L1448.37 875.344L1674.27 777.536L1448.96 679.981L1448.53 679.795L1448.21 679.661ZM1675.13 777.908L1449.23 875.716L1674.15 973.099L1674.59 973.285L1675.01 973.472L1675.28 973.591L1901.19 875.783L1675.87 778.228L1675.44 778.042L1675.13 777.908ZM1902.04 876.155L1676.15 973.963L1901.07 1071.35L1901.49 1071.53L1901.92 1071.72L1902.2 1071.84L2128.09 974.03L1902.79 876.475L1902.35 876.289L1902.04 876.155ZM2128.95 974.402L1903.05 1072.21L2128.4 1169.78L2128.84 1169.97L2129.11 1170.08L2355 1072.28L2129.69 974.722L2129.27 974.536L2128.95 974.402ZM2809.57 876.104L2583.52 973.979L2357.47 876.104L2583.52 778.229L2583.79 778.348L2584.23 778.534L2584.65 778.72L2809.57 876.104ZM2356.6 875.731L2582.65 777.856L2357.73 680.473L2357.31 680.287L2356.88 680.101L2356.6 679.982L2130.55 777.856L2356.6 875.731ZM2583.52 777.485L2583.95 777.67L2584.37 777.856L2584.65 777.976L2810.71 680.101L2584.65 582.226L2358.6 680.101L2583.52 777.485ZM2585.51 778.348L2810.85 875.918L2811.29 876.104L2811.56 876.223L3037.61 778.348L2811.56 680.473L2585.51 778.348ZM2129.69 777.485L1903.64 679.609L2129.69 581.735L2129.97 581.854L2130.4 582.04L2355.75 679.61L2129.69 777.485ZM2583.79 581.854L2357.73 679.729L2357.47 679.61L2357.04 679.424L2356.6 679.237L2131.69 581.854L2357.73 483.979L2583.79 581.854ZM2128.84 581.362L1902.79 679.238L1676.73 581.362L1902.79 483.487L2128.84 581.362ZM1675.87 580.991L1449.81 483.116L1629.63 405.261L1675.87 385.241L1676.57 385.546L1677 385.732L1901.92 483.116L1675.87 580.991ZM1448.96 482.744L1222.91 384.869L1448.96 286.994L1449.24 287.113L1449.67 287.299L1450.09 287.485L1675.01 384.869L1448.96 482.744ZM1676.57 384.43L1676.15 384.616L1675.87 384.497L1450.95 287.113L1677 189.238L1902.2 286.741L1676.57 384.43ZM1678.72 384.988L1903.92 482.491L2129.97 384.616L1904.77 287.113L1904.35 287.299L1678.72 384.988ZM1221.19 188.375L995.136 286.25L769.084 188.375L995.136 90.5L995.412 90.619L995.841 90.805L1221.19 188.375ZM997.129 90.619L1222.05 188.003L1222.48 188.189L1222.91 188.375L1223.18 188.494L1449.24 90.619L1223.18 -7.256L997.129 90.619ZM1222.05 188.747L995.995 286.622L1222.05 384.496L1399.8 307.533L1448.09 286.622L1223.18 189.238L1222.75 189.052L1222.32 188.866L1222.05 188.747ZM1224.04 188.866L1450.09 90.991L1676.15 188.866L1450.09 286.741L1449.81 286.622L1449.39 286.436L1448.96 286.25L1224.04 188.866ZM1673.29 1169.97L1447.24 1267.84L1221.19 1169.97L1447.24 1072.09L1673.29 1169.97ZM1901.07 1267.84L1675.01 1169.97L1901.07 1072.09L1901.33 1072.21L1901.76 1072.4H1901.77L1902.2 1072.58L2127.12 1169.97L1901.07 1267.84ZM1448.09 1071.72L1674.15 1169.59L1900.2 1071.72L1675.28 974.335L1674.85 974.149L1674.43 973.963L1674.15 973.843L1448.09 1071.72ZM1674.15 1366.09L1448.09 1268.21L1674.15 1170.34L1900.2 1268.21L1674.15 1366.09ZM1447.24 1071.35L1673.29 973.472L1448.37 876.088L1447.95 875.902L1447.52 875.716L1447.24 875.596L1221.19 973.471L1447.24 1071.35ZM1220.33 1169.59L1446.39 1071.72L1220.33 973.843L994.276 1071.72L1220.33 1169.59ZM1219.47 973.471L993.416 1071.35L767.364 973.471L993.416 875.596L1219.47 973.471ZM994.276 875.224L1220.33 973.099L1446.39 875.224L1221.46 777.841L1221.03 777.655L1220.6 777.469L1220.33 777.349L994.276 875.224ZM993.416 874.852L1219.47 776.977L994.551 679.594L994.121 679.408L993.692 679.222L993.416 679.103L920.325 710.749L767.364 776.977L993.416 874.852ZM766.505 973.099L992.557 875.224L766.505 777.349L540.453 875.224L766.505 973.099ZM765.645 776.977L539.593 874.852L313.541 776.977L539.593 679.102L765.645 776.977ZM540.453 678.731L766.505 776.606L992.557 678.731L767.64 581.347L767.209 581.161L766.78 580.975L766.505 580.855L540.453 678.731ZM86.6293 678.731L312.681 776.606L538.735 678.731L312.681 580.855L86.6293 678.731ZM312.681 580.112L538.735 482.237L313.387 384.667L312.957 384.481L312.681 384.361L86.6293 482.236L312.681 580.112ZM85.7707 678.358L311.823 580.483L85.7693 482.608L-140.281 580.483L85.7707 678.358ZM313.541 580.483L539.593 482.608L539.869 482.728L540.299 482.914L540.728 483.1L765.645 580.484L539.593 678.359V678.358L313.541 580.483Z" fill="url(#paint0_linear_1_625)"/>
<path opacity="0.12" d="M1252.32 462.379C1241.33 457.619 1223.34 457.619 1212.34 462.379C1201.35 467.139 1201.35 474.929 1212.34 479.69C1223.34 484.45 1241.33 484.45 1252.32 479.69C1263.32 474.929 1263.32 467.139 1252.32 462.379ZM1210.06 471.034C1210.06 468.438 1212.48 466.027 1216.34 464.357L1216.48 477.773C1212.63 475.98 1210.06 473.631 1210.06 471.034ZM1220.48 479.133V462.936C1229.05 460.586 1240.61 461.019 1248.04 464.234C1253.32 466.521 1255.32 469.612 1254.32 472.518L1250.32 472.394C1251.18 469.921 1249.47 467.325 1245.18 465.47C1239.61 463.059 1231.33 462.565 1224.48 463.925V478.144C1230.05 479.319 1236.76 479.133 1242.04 477.711L1235.19 474.744L1238.04 473.507L1248.04 477.835C1240.61 481.05 1229.05 481.482 1220.48 479.133Z" fill="white"/>
<path opacity="0.2" d="M1679.68 662.405L1697.92 670.303L1696.48 670.931L1679.91 663.757L1668.99 668.482L1684.57 675.228L1683.12 675.856L1667.55 669.11L1655.56 674.297L1672.32 681.553L1670.87 682.181L1652.44 674.2L1679.68 662.405ZM1699.56 671.011L1701.49 671.85L1698.11 680.756L1718.87 679.37L1746.03 677.951L1697.95 681.778L1694.05 692.218L1692.04 691.346L1695.59 681.846L1673.61 683.366L1671.63 682.51L1695.81 680.857L1699.56 671.011ZM1720.57 681.363L1722.01 680.736L1742.8 689.736L1741.36 690.364L1731.77 686.217L1705.99 697.385L1704.32 696.661L1730.11 685.493L1720.57 681.363ZM1656.87 652.524L1658.95 653.429L1644.64 684.583L1648.63 672.547L1656.55 654.173L1631.29 665.044L1629.61 664.32L1656.87 652.524ZM1717.28 700.641C1716.95 700.493 1716.95 700.268 1717.29 700.119C1717.48 700.046 1717.68 700.007 1717.89 700.006C1718.1 700.006 1718.31 700.044 1718.49 700.116C1718.84 700.265 1718.83 700.489 1718.49 700.637C1718.31 700.711 1718.1 700.75 1717.89 700.751C1717.68 700.751 1717.47 700.714 1717.28 700.641ZM1720.52 700.661L1721.41 701.049C1720.95 701.264 1720.97 701.558 1721.49 701.783C1722.08 702.035 1722.76 702.026 1723.41 701.742L1727.56 699.944L1728.48 700.338L1724.32 702.139C1723.13 702.65 1721.77 702.649 1720.64 702.159C1719.57 701.699 1719.51 701.099 1720.52 700.661ZM1725.37 702.714L1726.27 703.105C1725.79 703.38 1725.99 703.77 1726.77 704.11C1727.49 704.427 1728.41 704.495 1728.93 704.269C1729.39 704.075 1729.31 703.811 1728.72 703.395L1728.15 702.989C1727.33 702.421 1727.36 701.99 1728.23 701.616C1729.27 701.163 1730.83 701.231 1732.11 701.786C1733.29 702.302 1733.47 702.98 1732.53 703.431L1731.64 703.048C1732.11 702.776 1731.97 702.425 1731.28 702.13C1730.56 701.818 1729.73 701.76 1729.21 701.989C1728.79 702.171 1728.85 702.409 1729.44 702.817L1729.93 703.166C1730.85 703.809 1730.87 704.235 1729.97 704.618C1728.85 705.105 1727.28 705.033 1725.89 704.431C1724.59 703.867 1724.39 703.198 1725.37 702.714Z" fill="white"/>
<g opacity="0.2">
<path fill-rule="evenodd" clip-rule="evenodd" d="M1693.4 456.343L1698.99 453.928L1714.11 467.731L1679.45 479.631L1648.51 475.785L1667.84 467.414L1674.04 470.102L1669.63 474.572L1675.11 476.943L1693.4 456.343ZM1672.37 465.447L1682.71 460.977L1676.67 467.304L1672.37 465.447Z" fill="white"/>
<path fill-rule="evenodd" clip-rule="evenodd" d="M1693.41 456.344L1698.99 453.929L1667.11 447.383L1639.63 462.388L1648.51 475.786L1667.84 467.414L1661.57 464.704L1651.25 466.617L1645.77 464.245L1693.41 456.344ZM1682.71 460.978L1668.09 463.59L1672.39 465.447L1682.71 460.978Z" fill="white" fill-opacity="0.6"/>
</g>
<g opacity="0.2">
<path opacity="0.9" fill-rule="evenodd" clip-rule="evenodd" d="M1437.49 383.819L1454.28 356.509L1463.43 360.468L1453.47 376.904L1491.32 372.544L1500.57 376.553L1437.49 383.819Z" fill="white"/>
<path opacity="0.9" d="M1455.01 376.238L1465.08 359.752L1473.64 363.46L1469.83 369.824L1484.4 368.12L1492.97 371.828L1455.01 376.238Z" fill="white" fill-opacity="0.4"/>
</g>
<path opacity="0.21" d="M1900.55 567.629L1920.51 543.598C1921 542.994 1920.69 542.32 1919.71 541.844C1918.72 541.359 1917.21 541.151 1915.76 541.302L1865.28 546.473C1863.72 546.63 1862.51 547.165 1862.17 547.844L1857.01 558.241C1856.61 559.045 1857.49 559.865 1859.16 560.256L1894.59 568.593C1895.67 568.848 1896.95 568.889 1898.09 568.704C1899.24 568.519 1900.13 568.126 1900.55 567.629ZM1894.95 566.607L1864.88 559.532C1863.97 559.316 1863.91 558.757 1864.76 558.511L1912.75 544.915C1913.64 544.661 1914.79 545.054 1914.43 545.492L1897.17 566.245C1897.03 566.431 1896.68 566.579 1896.25 566.649C1895.83 566.718 1895.35 566.703 1894.95 566.607Z" fill="white"/>
<path opacity="0.3" d="M1488.75 586.997C1488.37 586.669 1487.99 586.35 1487.59 586.039C1488.08 585.912 1488.55 585.784 1489 585.655C1496.45 583.53 1500.6 581.013 1499.4 579.072C1498.24 577.211 1492.15 575.99 1483.72 575.738C1482.92 575.713 1482.08 575.698 1481.23 575.691C1481.22 575.45 1481.2 575.209 1481.16 574.97C1480.63 571.112 1477.67 568.3 1473.19 567.782C1468.88 567.285 1463.4 568.963 1458.68 571.996C1458.23 572.289 1457.79 572.595 1457.33 572.913C1456.48 572.705 1455.63 572.513 1454.8 572.339C1447.33 570.778 1440.77 570.557 1437.64 571.915C1434.4 573.317 1434.95 576.366 1438.75 579.714C1439.04 579.978 1439.36 580.246 1439.71 580.517C1438.92 580.724 1438.16 580.934 1437.44 581.147C1430.59 583.166 1426.87 585.515 1428.03 587.369C1429.21 589.284 1435.59 590.603 1444.17 590.853C1444.85 590.873 1445.55 590.885 1446.27 590.89C1446.28 591.291 1446.33 591.682 1446.39 592.06C1447.01 595.638 1449.85 598.205 1454.13 598.7C1458.56 599.211 1464.39 597.479 1469.17 594.381C1469.55 594.144 1469.91 593.897 1470.27 593.64C1470.69 593.741 1471.12 593.838 1471.53 593.929C1479.51 595.664 1486.61 595.962 1489.91 594.541C1493.05 593.179 1492.44 590.282 1488.75 586.997ZM1472.96 592.708C1472.57 592.625 1472.19 592.538 1471.8 592.447C1473.29 591.205 1474.62 589.861 1475.77 588.435C1479.07 587.914 1482.12 587.334 1484.84 586.711C1485.23 587.01 1485.57 587.305 1485.91 587.596C1489.08 590.411 1489.56 592.753 1487.67 593.575C1485.65 594.449 1479.84 594.205 1472.96 592.708ZM1466.56 593.62C1464.44 594.99 1462.12 596.057 1459.91 596.715C1457.92 597.307 1456.17 597.52 1454.96 597.379C1452.35 597.078 1450.07 595.017 1449.55 591.958C1449.48 591.597 1449.44 591.234 1449.43 590.87C1452.51 590.81 1455.85 590.637 1459.37 590.358C1462.03 591.328 1464.76 592.193 1467.53 592.95C1467.21 593.183 1466.88 593.406 1466.56 593.62ZM1434.87 588.542C1432.69 588.091 1431.4 587.544 1431.07 587.015C1430.37 585.889 1433.36 584.004 1439.21 582.277C1439.88 582.079 1440.59 581.884 1441.33 581.691C1443 582.823 1445.03 583.996 1447.36 585.181C1446.79 586.594 1446.43 588.05 1446.29 589.523C1445.64 589.518 1445 589.507 1444.39 589.489C1440.59 589.379 1437.29 589.043 1434.87 588.542ZM1441.57 579.112C1439.89 577.632 1438.93 576.23 1438.72 575.071C1438.53 574.029 1438.99 573.269 1439.88 572.882C1441.77 572.058 1447.04 572.235 1453.43 573.57C1454.2 573.731 1454.99 573.91 1455.79 574.103C1454.29 575.334 1452.93 576.66 1451.73 578.064C1448.61 578.558 1445.52 579.152 1442.47 579.845C1442.15 579.597 1441.85 579.353 1441.57 579.112ZM1461.31 572.759C1465.35 570.16 1469.77 568.804 1472.37 569.103C1475.13 569.422 1477.56 571.72 1478.01 575.051C1478.04 575.264 1478.05 575.482 1478.07 575.704C1474.74 575.76 1471.42 575.912 1468.11 576.161C1465.48 575.213 1462.79 574.362 1460.05 573.611C1460.47 573.316 1460.88 573.031 1461.31 572.759ZM1478.28 584.929C1478.65 584.318 1479 583.711 1479.31 583.109C1480.76 583.922 1482.08 584.735 1483.24 585.533C1481.35 585.963 1479.27 586.373 1477.07 586.757C1477.49 586.162 1477.89 585.552 1478.28 584.929ZM1478.04 577.072C1477.96 578.001 1477.73 578.987 1477.4 580.011C1475.39 579.056 1473.33 578.163 1471.23 577.336C1473.59 577.196 1475.87 577.108 1478.04 577.072ZM1459.81 576.95C1458.41 577.114 1457.01 577.292 1455.64 577.481C1456.53 576.532 1457.49 575.635 1458.51 574.804C1460.33 575.305 1462.19 575.876 1464.05 576.503C1462.65 576.636 1461.24 576.785 1459.81 576.95ZM1448.13 583.44C1446.73 582.688 1445.38 581.88 1444.09 581.02C1446.18 580.547 1448.28 580.125 1450.4 579.755C1449.96 580.349 1449.55 580.954 1449.17 581.568C1448.79 582.193 1448.44 582.818 1448.13 583.44ZM1449.45 589.501C1449.55 588.548 1449.75 587.545 1450.08 586.51C1452.11 587.459 1454.18 588.354 1456.29 589.195C1453.89 589.353 1451.61 589.456 1449.45 589.501ZM1471.92 589.004C1471.03 589.996 1470.07 590.918 1469.08 591.754C1467.15 591.228 1465.24 590.644 1463.37 590.003C1464.77 589.866 1466.19 589.714 1467.63 589.547C1469.09 589.378 1470.52 589.196 1471.92 589.004ZM1466.81 588.227C1464.57 588.486 1462.39 588.708 1460.27 588.892C1456.98 587.661 1453.79 586.288 1450.72 584.78C1451.13 583.836 1451.63 582.878 1452.23 581.92C1452.81 580.964 1453.48 580.031 1454.2 579.131C1456.28 578.815 1458.44 578.526 1460.64 578.27C1462.84 578.013 1465.04 577.797 1467.2 577.621C1470.5 578.835 1473.68 580.214 1476.73 581.746C1476.3 582.709 1475.8 583.653 1475.23 584.576C1474.63 585.544 1473.99 586.477 1473.29 587.367C1471.21 587.679 1469.04 587.967 1466.81 588.227ZM1496.35 579.427C1497.09 580.621 1493.69 582.678 1487.27 584.513C1486.85 584.63 1486.43 584.746 1485.99 584.861C1484.32 583.706 1482.33 582.525 1480.11 581.358C1480.72 579.851 1481.08 578.402 1481.2 577.058C1481.99 577.065 1482.76 577.079 1483.51 577.101C1490.72 577.318 1495.65 578.305 1496.35 579.427ZM1468.44 581.208C1471.01 582.323 1471.01 584.133 1468.44 585.249C1465.87 586.364 1461.68 586.364 1459.11 585.249C1456.53 584.133 1456.53 582.324 1459.11 581.208C1461.68 580.092 1465.87 580.092 1468.44 581.208Z" fill="white"/>
<g opacity="0.1">
<path fill-rule="evenodd" clip-rule="evenodd" d="M1208.42 682.693L1208.53 682.552C1208.74 682.272 1209.17 682.084 1209.82 681.897L1198.15 676.842L1246.15 671.038L1240.31 679.838L1244.42 680.118L1250.25 671.318C1250.36 671.178 1250.8 670.242 1249.39 669.633C1248.74 669.353 1247.55 669.025 1245.39 669.306L1196.85 675.157C1196.42 675.25 1194.26 675.531 1193.71 676.327C1193.5 676.795 1193.5 677.357 1195.01 678.012L1209.71 684.378C1208.2 683.723 1208.09 683.114 1208.42 682.693Z" fill="white" fill-opacity="0.6"/>
<path fill-rule="evenodd" clip-rule="evenodd" d="M1244.53 695.894L1255.77 678.856C1255.77 678.669 1256.42 677.733 1255.01 677.124C1254.37 676.843 1253.07 676.562 1251.01 676.796L1246.15 677.311L1240.31 679.839L1251.77 678.528L1240.85 695.332L1235.55 693.039C1235.13 693.3 1234.52 693.496 1233.83 693.6H1233.61C1231.77 693.834 1230.04 693.179 1229.83 693.085L1238.04 696.643C1238.37 696.783 1239.99 697.392 1241.93 697.205C1242.8 697.111 1243.99 696.783 1244.53 695.894Z" fill="white" fill-opacity="0.2"/>
<path d="M1234.04 693.786L1234.15 693.74L1234.47 693.693C1235.01 693.552 1235.55 693.412 1235.88 693.178L1236.74 692.429L1244.96 679.323L1246.26 677.357L1246.15 677.31L1241.61 677.872L1211.34 681.429L1209.61 681.804C1208.95 681.996 1208.46 682.275 1208.2 682.599C1207.99 683.067 1207.99 683.629 1209.5 684.284L1230.04 693.178C1230.37 693.318 1232.1 693.974 1234.04 693.786ZM1240.31 679.838L1232.74 691.82L1212.64 683.114L1240.31 679.838Z" fill="white"/>
</g>
<path opacity="0.1" fill-rule="evenodd" clip-rule="evenodd" d="M990.699 557.725L1035.46 577.104L990.699 596.483L945.941 577.104L990.699 557.725ZM965.064 579.015C963.953 580.355 964.164 581.955 967.528 583.411C971.253 585.025 975.791 585.272 980.147 583.385L994.507 577.168L990.301 575.347L976 581.539C973.897 582.449 972.485 582.306 971.103 581.707C969.661 581.083 970.052 580.394 970.563 579.6L965.064 579.015H965.065H965.064ZM985.796 585.884L980.388 585.259C979.187 586.846 979.847 588.745 983.753 590.437C987.748 592.167 992.796 592.557 996.581 590.918C1000.1 589.396 999.645 587.848 997.603 585.636L997.003 584.986C995.981 583.867 995.711 583.308 996.972 582.762C997.993 582.319 999.556 582.319 1000.79 582.853C1001.99 583.373 1002.26 583.932 1001.69 584.804L1007.07 585.311C1008.12 583.659 1007.13 582.423 1004.45 581.266C1000.7 579.64 995.891 579.64 992.736 581.006C989.311 582.489 989.701 584.063 991.444 585.936L992.045 586.586C993.127 587.783 993.757 588.498 992.315 589.123C991.113 589.643 989.131 589.539 987.388 588.785C985.315 587.887 985.225 586.911 985.796 585.884Z" fill="white"/>
<g opacity="0.56">
<g opacity="0.4">
<path d="M1869.17 356.538L1947.04 390.247L1921.08 401.484L1882.16 384.629L1877.83 386.502L1860.53 379.011L1864.85 377.138L1843.23 367.774L1869.17 356.538ZM1851.88 367.774L1860.53 371.52L1873.51 365.901L1877.83 367.774L1864.85 373.393L1869.17 375.265L1886.48 367.774L1869.17 360.283L1851.88 367.774ZM1890.8 369.647L1869.17 379.011L1877.83 382.756L1882.16 380.884L1890.8 384.629L1908.11 377.138L1890.8 369.647ZM1895.13 375.265L1899.45 377.138L1890.8 380.884L1886.48 379.011L1895.13 375.265ZM1912.43 379.011L1895.13 386.502L1903.79 390.247L1916.76 384.629L1921.08 386.502L1908.11 392.12L1912.43 393.993L1925.41 388.375L1929.73 390.247L1916.76 395.866L1921.08 397.738L1938.39 390.247L1912.43 379.011Z" fill="#242424"/>
<path d="M1851.88 367.774L1860.53 371.52L1873.51 365.902L1877.83 367.774L1864.85 373.393L1869.17 375.265L1886.48 367.774L1869.17 360.283L1851.88 367.774ZM1890.8 369.647L1869.17 379.011L1877.83 382.756L1882.16 380.884L1890.8 384.629L1908.11 377.138L1890.8 369.647ZM1890.8 380.884L1886.48 379.011L1895.13 375.265L1899.45 377.138L1890.8 380.884ZM1912.43 379.011L1895.13 386.502L1903.79 390.248L1916.76 384.629L1921.08 386.502L1908.11 392.12L1912.43 393.993L1925.41 388.375L1929.73 390.248L1916.76 395.866L1921.08 397.739L1938.39 390.248L1912.43 379.011Z" fill="white"/>
</g>
</g>
</g>
</g>
<defs>
<linearGradient id="paint0_linear_1_625" x1="1399.47" y1="262.055" x2="1487.31" y2="818.082" gradientUnits="userSpaceOnUse">
<stop offset="0.063" stop-color="white" stop-opacity="0"/>
<stop offset="1" stop-color="white" stop-opacity="0.4"/>
</linearGradient>
<clipPath id="clip0_1_625">
<rect width="1920" height="763" fill="white"/>
</clipPath>
</defs>
</svg>
